#N canvas 179 240 1403 767 10;
#X obj 48 75 osc~ 440;
#X obj 155 75 osc~ 880;
#X obj 279 72 osc~ 1320;
#X obj 101 211 *~;
#X obj 214 219 *~;
#X obj 278 218 *~;
#X obj 133 261 +~;
#X obj 260 502 dac~;
#X obj 528 364 onda~;
#X obj 119 31 vsl 15 128 0 127 0 0 empty empty empty 0 -9 0 10 -262144
-1 -1 4400 1;
#X obj 116 181 / 128;
#X obj 225 28 vsl 15 128 0 127 0 0 empty empty empty 0 -9 0 10 -262144
-1 -1 600 1;
#X obj 227 179 / 128;
#X obj 345 41 vsl 15 128 0 127 0 0 empty empty empty 0 -9 0 10 -262144
-1 -1 2300 1;
#X obj 345 180 / 128;
#X obj 528 536 osciloscopio~;
#X obj 392 217 *~;
#X obj 459 40 vsl 15 128 0 127 0 0 empty empty empty 0 -9 0 10 -262144
-1 -1 2700 1;
#X obj 459 179 / 128;
#X obj 311 263 +~;
#X obj 393 71 osc~ 1760;
#X obj 507 216 *~;
#X obj 574 39 vsl 15 128 0 127 0 0 empty empty empty 0 -9 0 10 -262144
-1 -1 1900 1;
#X obj 574 178 / 128;
#X obj 621 215 *~;
#X obj 688 38 vsl 15 128 0 127 0 0 empty empty empty 0 -9 0 10 -262144
-1 -1 3300 1;
#X obj 688 177 / 128;
#X obj 540 261 +~;
#X obj 387 325 +~;
#X obj 261 456 +~;
#X obj 204 304 +~;
#X obj 508 70 osc~ 2200;
#X obj 622 69 osc~ 2640;
#X connect 0 0 3 0;
#X connect 1 0 4 0;
#X connect 2 0 5 0;
#X connect 3 0 6 0;
#X connect 4 0 6 1;
#X connect 5 0 19 0;
#X connect 6 0 30 0;
#X connect 9 0 10 0;
#X connect 10 0 3 1;
#X connect 11 0 12 0;
#X connect 12 0 4 1;
#X connect 13 0 14 0;
#X connect 14 0 5 1;
#X connect 16 0 19 1;
#X connect 17 0 18 0;
#X connect 18 0 16 1;
#X connect 19 0 30 1;
#X connect 20 0 16 0;
#X connect 21 0 27 0;
#X connect 22 0 23 0;
#X connect 23 0 21 1;
#X connect 24 0 27 1;
#X connect 25 0 26 0;
#X connect 26 0 24 1;
#X connect 27 0 28 1;
#X connect 28 0 29 1;
#X connect 29 0 7 0;
#X connect 29 0 7 1;
#X connect 29 0 8 0;
#X connect 29 0 15 0;
#X connect 30 0 29 0;
#X connect 31 0 21 0;
#X connect 32 0 24 0;
